<?xml version="1.0" encoding="UTF-8" standalone="no"?>
<svg
   xmlns:dc="http://purl.org/dc/elements/1.1/"
   xmlns:cc="http://creativecommons.org/ns#"
   xmlns:rdf="http://www.w3.org/1999/02/22-rdf-syntax-ns#"
   xmlns:svg="http://www.w3.org/2000/svg"
   xmlns="http://www.w3.org/2000/svg"
   id="svg2"
   version="1.1"
   xml:space="preserve"
   width="2.6679699in"
   height="2.6679699in"
   viewBox="0 0 240.11729 240.11731"><metadata
   id="metadata8"><rdf:RDF><cc:Work
       rdf:about=""><dc:format>image/svg+xml</dc:format><dc:type
         rdf:resource="http://purl.org/dc/dcmitype/StillImage" /><dc:title /></cc:Work></rdf:RDF></metadata><defs
   id="defs6">



</defs><g
   id="text14"
   style="font-style:normal;font-weight:600;font-size:110px;font-family:Montserrat;writing-mode:lr-tb;fill:#006633;fill-opacity:1;fill-rule:nonzero;stroke:none;stroke-width:1.25"
   transform="scale(0.94868329,1.0540926)"
   aria-label="CSI"><path
     id="path16"
     style="stroke-width:1.25"
     d="m 83.456994,126.59813 c 12.65,0 23.429996,-4.51 30.579996,-12.87 l -9.24,-8.8 c -5.609996,6.16 -12.539996,9.13 -20.569996,9.13 -15.95,0 -27.5,-11.22 -27.5,-27.059999 0,-15.84 11.55,-27.06 27.5,-27.06 8.03,0 14.96,2.97 20.569996,9.02 l 9.24,-8.69 c -7.15,-8.36 -17.929996,-12.87 -30.469996,-12.87 -23.65,0 -41.25,16.61 -41.25,39.6 0,22.989999 17.6,39.599999 41.14,39.599999 z" /><path
     id="path18"
     style="stroke-width:1.25"
     d="m 151.17918,126.59813 c 21.12,0 31.13,-10.56 31.13,-22.88 0,-28.269999 -45.65,-17.599999 -45.65,-33.989999 0,-5.83 4.84,-10.45 16.72,-10.45 6.71,0 14.3,1.98 21.23,6.05 l 4.51,-11.11 c -6.71,-4.4 -16.39,-6.82 -25.63,-6.82 -21.12,0 -31.02,10.56 -31.02,22.99 0,28.6 45.76,17.71 45.76,34.319999 0,5.72 -5.06,10.01 -17.05,10.01 -9.46,0 -19.25,-3.52 -25.41,-8.47 l -4.95,11.11 c 6.38,5.5 18.37,9.24 30.36,9.24 z" /><path
     id="path20"
     style="stroke-width:1.25"
     d="m 196.48887,125.49813 h 14.3 V 48.498131 h -14.3 z" /></g>
<g
   id="text22"
   style="font-style:normal;font-weight:500;font-size:35px;font-family:Montserrat;writing-mode:lr-tb;fill:#000000;fill-opacity:1;fill-rule:nonzero;stroke:none;stroke-width:1.25"
   aria-label="Section 003"><path
     id="path23"
     style="stroke-width:1.25"
     d="m 26.158846,42.462014 c 6.475,0 9.485,-3.22 9.485,-6.965 0,-8.995 -14.84,-5.25 -14.84,-11.235 0,-2.135 1.785,-3.885 5.95,-3.885 2.17,0 4.585,0.63 6.72,1.995 l 1.155,-2.8 c -2.03,-1.4 -5.005,-2.17 -7.875,-2.17 -6.44,0 -9.38,3.22 -9.38,7 0,9.1 14.84,5.32 14.84,11.305 0,2.135 -1.82,3.78 -6.055,3.78 -3.15,0 -6.265,-1.19 -8.085,-2.835 l -1.295,2.73 c 1.96,1.82 5.635,3.08 9.38,3.08 z" /><path
     id="path25"
     style="stroke-width:1.25"
     d="m 57.028846,33.012014 c 0,-5.705 -3.815,-9.555 -9.17,-9.555 -5.355,0 -9.31,3.955 -9.31,9.45 0,5.53 3.99,9.485 9.975,9.485 3.08,0 5.635,-1.05 7.315,-3.01 l -1.855,-2.17 c -1.365,1.505 -3.185,2.24 -5.355,2.24 -3.675,0 -6.3,-2.17 -6.72,-5.425 h 15.05 c 0.035,-0.315 0.07,-0.735 0.07,-1.015 z m -9.17,-6.72 c 3.255,0 5.6,2.205 5.95,5.32 h -11.9 c 0.35,-3.15 2.73,-5.32 5.95,-5.32 z" /><path
     id="path27"
     style="stroke-width:1.25"
     d="m 69.768837,42.392014 c 3.325,0 6.09,-1.4 7.56,-3.99 l -2.555,-1.61 c -1.19,1.82 -3.01,2.66 -5.04,2.66 -3.64,0 -6.37,-2.52 -6.37,-6.545 0,-3.955 2.73,-6.51 6.37,-6.51 2.03,0 3.85,0.84 5.04,2.66 l 2.555,-1.645 c -1.47,-2.59 -4.235,-3.955 -7.56,-3.955 -5.705,0 -9.8,3.92 -9.8,9.45 0,5.53 4.095,9.485 9.8,9.485 z" /><path
     id="path29"
     style="stroke-width:1.25"
     d="m 91.293844,38.682014 c -0.7,0.56 -1.645,0.875 -2.625,0.875 -1.855,0 -2.905,-1.12 -2.905,-3.115 v -10.045 h 5.32 v -2.765 h -5.32 v -4.06 h -3.36 v 4.06 h -3.15 v 2.765 h 3.15 v 10.185 c 0,3.745 2.135,5.81 5.88,5.81 1.505,0 3.045,-0.42 4.06,-1.295 z" /><path
     id="path31"
     style="stroke-width:1.25"
     d="m 98.083849,20.062014 c 1.33,0 2.275001,-0.98 2.275001,-2.24 0,-1.19 -0.980001,-2.135 -2.275001,-2.135 -1.295,0 -2.275,0.98 -2.275,2.205 0,1.225 0.98,2.17 2.275,2.17 z m -1.68,22.12 h 3.36 v -18.55 h -3.36 z" /><path
     id="path33"
     style="stroke-width:1.25"
     d="m 114.11384,42.392014 c 5.565,0 9.625,-3.955 9.625,-9.485 0,-5.53 -4.06,-9.45 -9.625,-9.45 -5.565,0 -9.66,3.92 -9.66,9.45 0,5.53 4.095,9.485 9.66,9.485 z m 0,-2.94 c -3.57,0 -6.265,-2.59 -6.265,-6.545 0,-3.955 2.695,-6.51 6.265,-6.51 3.57,0 6.23,2.555 6.23,6.51 0,3.955 -2.66,6.545 -6.23,6.545 z" /><path
     id="path35"
     style="stroke-width:1.25"
     d="m 138.29886,23.457014 c -2.94,0 -5.32,1.085 -6.685,2.975 v -2.8 h -3.22 v 18.55 h 3.36 v -9.555 c 0,-4.025 2.31,-6.16 5.88,-6.16 3.185,0 5.005,1.785 5.005,5.425 v 10.29 h 3.36 v -10.675 c 0,-5.46 -3.185,-8.05 -7.7,-8.05 z" /><path
     id="path37"
     style="stroke-width:1.25"
     d="m 170.16743,42.462014 c 5.705,0 9.975,-4.55 9.975,-12.53 0,-7.98 -4.27,-12.53 -9.975,-12.53 -5.74,0 -10.01,4.55 -10.01,12.53 0,7.98 4.27,12.53 10.01,12.53 z m 0,-3.115 c -3.85,0 -6.51,-3.15 -6.51,-9.415 0,-6.265 2.66,-9.415 6.51,-9.415 3.815,0 6.475,3.15 6.475,9.415 0,6.265 -2.66,9.415 -6.475,9.415 z" /><path
     id="path39"
     style="stroke-width:1.25"
     d="m 193.54634,42.462014 c 5.705,0 9.975,-4.55 9.975,-12.53 0,-7.98 -4.27,-12.53 -9.975,-12.53 -5.74,0 -10.01,4.55 -10.01,12.53 0,7.98 4.27,12.53 10.01,12.53 z m 0,-3.115 c -3.85,0 -6.51,-3.15 -6.51,-9.415 0,-6.265 2.66,-9.415 6.51,-9.415 3.815,0 6.475,3.15 6.475,9.415 0,6.265 -2.66,9.415 -6.475,9.415 z" /><path
     id="path41"
     style="stroke-width:1.25"
     d="m 215.95345,27.972014 6.405,-7.91 v -2.38 h -16.17 v 3.045 h 11.795 l -6.16,7.56 v 2.45 h 1.96 c 4.2,0 6.055,1.68 6.055,4.27 0,2.66 -2.1,4.34 -5.775,4.34 -3.01,0 -5.74,-1.085 -7.385,-2.625 l -1.61,2.765 c 2.065,1.855 5.495,2.975 8.995,2.975 6.23,0 9.275,-3.36 9.275,-7.49 0,-3.78 -2.485,-6.545 -7.385,-7 z" /></g>
<g
   id="text18"
   style="font-style:normal;font-weight:600;font-size:110px;font-family:Montserrat;writing-mode:lr-tb;fill:#000000;fill-opacity:1;fill-rule:nonzero;stroke:none;stroke-width:1.25"
   transform="scale(0.94868329,1.0540926)"
   aria-label="702"><path
     id="path44"
     style="stroke-width:1.25"
     d="m -1.281929e-4,134.81326 v 25.19 H 13.309872 v -13.09 h 30.25 l -28.93,64.9 h 15.29 l 29.92,-67.43 v -9.57 z" /><path
     id="path46"
     style="stroke-width:1.25"
     d="m 98.547841,212.91326 c 18.369999,0 32.229999,-14.3 32.229999,-39.6 0,-25.3 -13.86,-39.6 -32.229999,-39.6 -18.26,0 -32.12,14.3 -32.12,39.6 0,25.3 13.86,39.6 32.12,39.6 z m 0,-12.43 c -10.45,0 -17.71,-8.58 -17.71,-27.17 0,-18.59 7.26,-27.17 17.71,-27.17 10.559999,0 17.819999,8.58 17.819999,27.17 0,18.59 -7.26,27.17 -17.819999,27.17 z" /><path
     id="path48"
     style="stroke-width:1.25"
     d="m 159.3744,199.71326 20.57,-19.58 c 10.67,-10.01 12.76,-16.83 12.76,-24.31 0,-13.64 -10.78,-22.11 -27.5,-22.11 -12.65,0 -23.32,4.73 -29.26,12.76 l 10.01,7.7 c 4.29,-5.5 10.56,-8.03 18.04,-8.03 9.46,0 14.3,4.07 14.3,11.11 0,4.29 -1.32,8.8 -8.8,15.95 l -30.58,29.04 v 9.57 h 56.76 v -12.1 z" /></g>
<g
   id="text22-3"
   style="font-style:normal;font-variant:normal;font-weight:bold;font-stretch:normal;font-size:40px;line-height:125%;font-family:'Playfair Display';-inkscape-font-specification:'Playfair Display, Bold';font-variant-ligatures:normal;font-variant-caps:normal;font-variant-numeric:normal;font-feature-settings:normal;text-align:start;writing-mode:lr-tb;text-anchor:start;fill:#f37021;fill-opacity:1;fill-rule:nonzero;stroke:none;stroke-width:1.25"
   aria-label="SP"><path
     id="path51"
     style="font-style:normal;font-variant:normal;font-weight:bold;font-stretch:normal;font-size:50px;font-family:'Playfair Display';-inkscape-font-specification:'Playfair Display, Bold';font-variant-ligatures:normal;font-variant-caps:normal;font-variant-numeric:normal;font-feature-settings:normal;text-align:start;writing-mode:lr-tb;text-anchor:start"
     d="m 203.4245,142.82116 c -4.71774,0 -9.03226,2.29838 -9.03226,7.37903 0,4.47581 3.34677,6.73387 7.17742,9.19355 3.54839,2.29838 6.04839,4.19355 6.04839,7.5 0,3.02419 -2.21775,4.51613 -5,4.51613 -5.16129,0 -7.01613,-4.75807 -7.33871,-10.12097 h -0.92742 c 0,6.41129 -0.0403,8.99193 -0.16129,10.8871 h 0.92742 c 0.16129,-1.16936 0.3629,-1.7742 0.88709,-1.7742 0.32258,0 0.72581,0.16129 1.37097,0.56452 1.33065,0.7258 3.14516,1.49193 6.49194,1.49193 5.40322,0 10,-2.54032 10,-7.8629 0,-4.35484 -3.0242,-6.53226 -6.85484,-9.07258 -4.47581,-3.06452 -6.93549,-4.35484 -6.93549,-7.62097 0,-2.54032 1.85484,-4.1129 4.43549,-4.1129 4.27419,0 6.57258,4.39516 6.85484,8.58871 h 0.92742 c 0,-5.64516 0.0806,-7.58065 0.20161,-9.19355 h -0.92742 c -0.16129,1.16936 -0.3629,1.77419 -0.8871,1.77419 -0.3629,0 -0.7258,-0.20161 -1.37097,-0.56451 -1.29032,-0.76613 -2.74193,-1.57258 -5.88709,-1.57258 z" /><path
     id="path53"
     style="font-style:normal;font-variant:normal;font-weight:bold;font-stretch:normal;font-size:50px;font-family:'Playfair Display';-inkscape-font-specification:'Playfair Display, Bold';font-variant-ligatures:normal;font-variant-caps:normal;font-variant-numeric:normal;font-feature-settings:normal;text-align:start;writing-mode:lr-tb;text-anchor:start"
     d="m 228.45159,160.36148 c 9.47581,0 12.05645,-5.12097 12.05645,-9.03226 0,-4.67742 -3.66935,-7.94355 -11.16935,-7.94355 -1.04839,0 -3.70968,0.0806 -6.33065,0.0806 -2.25806,0 -4.75806,-0.0403 -6.12903,-0.12097 v 0.80645 c 2.54032,0.12097 3.02419,0.5242 3.02419,3.46774 v 20 c 0,2.94355 -0.48387,3.34678 -3.02419,3.46775 v 0.80645 c 1.73387,-0.0403 4.07258,-0.12097 6.37097,-0.12097 2.90322,0 5.7258,0.0806 7.37903,0.12097 v -0.8871 c -3.58871,-0.0403 -4.31452,-0.48387 -4.31452,-3.62903 v -7.01613 z m 0.3629,-16.20968 c 3.66936,0 5,2.54032 5,7.62097 0,4.1129 -1.00806,7.78226 -5.76613,7.78226 h -1.73387 v -11.93549 c 0,-2.78225 0.40323,-3.46774 2.5,-3.46774 z" /></g>
<g
   id="text72"
   style="font-style:normal;font-variant:normal;font-weight:bold;font-stretch:normal;font-size:40px;line-height:125%;font-family:'Playfair Display';-inkscape-font-specification:'Playfair Display, Bold';font-variant-ligatures:normal;font-variant-caps:normal;font-variant-numeric:normal;font-feature-settings:normal;text-align:start;writing-mode:lr-tb;text-anchor:start;fill:#f37021;fill-opacity:1;fill-rule:nonzero;stroke:none;stroke-width:1.25"
   aria-label="'19"><path
     id="path56"
     style="font-style:normal;font-variant:normal;font-weight:bold;font-stretch:normal;font-size:50px;font-family:'Playfair Display';-inkscape-font-specification:'Playfair Display, Bold';font-variant-ligatures:normal;font-variant-caps:normal;font-variant-numeric:normal;font-feature-settings:normal;text-align:start;writing-mode:lr-tb;text-anchor:start"
     d="m 196.73096,186.99079 c -1.45162,0 -2.54033,1.04838 -2.54033,2.70161 0,2.45968 1.16936,4.03226 2.25807,7.8629 h 0.56451 c 1.08871,-4.03226 2.25807,-5.44355 2.25807,-7.90322 0,-1.65323 -1.12903,-2.66129 -2.54032,-2.66129 z" /><path
     id="path58"
     style="font-style:normal;font-variant:normal;font-weight:bold;font-stretch:normal;font-size:50px;font-family:'Playfair Display';-inkscape-font-specification:'Playfair Display, Bold';font-variant-ligatures:normal;font-variant-caps:normal;font-variant-numeric:normal;font-feature-settings:normal;text-align:start;writing-mode:lr-tb;text-anchor:start"
     d="m 212.26649,195.13595 c -2.33871,1.45161 -5.16129,1.9758 -9.75806,2.05645 v 0.8871 c 3.06451,0 3.95161,0.48387 3.95161,4.35483 v 9.83871 c 0,2.62097 -1.41129,3.30646 -3.79032,3.30646 v 0.84677 c 1.41129,-0.0403 4.15322,-0.16129 6.93548,-0.16129 2.17742,0 4.47581,0.12097 5.56452,0.16129 v -0.84677 c -2.09678,0 -2.90323,-0.68549 -2.90323,-3.06452 z" /><path
     id="path60"
     style="font-style:normal;font-variant:normal;font-weight:bold;font-stretch:normal;font-size:50px;font-family:'Playfair Display';-inkscape-font-specification:'Playfair Display, Bold';font-variant-ligatures:normal;font-variant-caps:normal;font-variant-numeric:normal;font-feature-settings:normal;text-align:start;writing-mode:lr-tb;text-anchor:start"
     d="m 227.53489,195.01498 c -5.40323,0 -10.04032,3.3871 -10.04032,9.55645 0,5.48387 3.62903,8.75 7.90322,8.75 1.93549,0 3.95161,-0.68548 5.16129,-2.45968 -1.25,7.70162 -5.56451,9.71775 -9.55645,10.8871 l 0.16129,0.80645 c 6.29032,-0.88709 15.84677,-5.56451 15.84677,-16.41129 0,-7.09677 -3.58871,-11.12903 -9.4758,-11.12903 z m -0.5242,17.1371 c -1.89516,0 -3.42741,-2.1371 -3.42741,-7.90323 0,-6.08871 1.69354,-8.42742 3.50806,-8.42742 1.81452,0 3.83064,2.33871 3.83064,10.12097 0,1.20968 -0.0403,2.29839 -0.16129,3.30645 -0.88709,2.1371 -2.58064,2.90323 -3.75,2.90323 z" /></g>
</svg>