<?xml version="1.0" encoding="UTF-8" standalone="no"?>
<svg
   xmlns:dc="http://purl.org/dc/elements/1.1/"
   xmlns:cc="http://creativecommons.org/ns#"
   xmlns:rdf="http://www.w3.org/1999/02/22-rdf-syntax-ns#"
   xmlns:svg="http://www.w3.org/2000/svg"
   xmlns="http://www.w3.org/2000/svg"
   width="655pt"
   height="140pt"
   viewBox="0 0 818.75002 175"
   id="svg2"
   version="1.1">
  <defs
     id="defs4" />
  <metadata
     id="metadata7">
    <rdf:RDF>
      <cc:Work
         rdf:about="">
        <dc:format>image/svg+xml</dc:format>
        <dc:type
           rdf:resource="http://purl.org/dc/dcmitype/StillImage" />
        <dc:title />
      </cc:Work>
    </rdf:RDF>
  </metadata>
  <g
     id="flowRoot4136"
     style="font-style:normal;font-variant:normal;font-weight:normal;font-stretch:normal;font-size:40px;line-height:125%;font-family:'Fira Sans';-inkscape-font-specification:'Fira Sans';letter-spacing:0px;word-spacing:0px;fill:#000000;fill-opacity:1;stroke:none;stroke-width:1px;stroke-linecap:butt;stroke-linejoin:miter;stroke-opacity:1"
     transform="translate(-175.44588,-38.132203)" />
  <g
     id="text3352"
     style="font-style:normal;font-weight:normal;font-size:27.5px;line-height:125%;font-family:sans-serif;letter-spacing:0px;word-spacing:0px;fill:#000000;fill-opacity:1;stroke:none;stroke-width:1px;stroke-linecap:butt;stroke-linejoin:miter;stroke-opacity:1" />
  <g
     transform="translate(0,5.625)"
     id="g877">
    <g
       id="text4162"
       style="font-style:normal;font-weight:normal;font-size:40px;line-height:125%;font-family:sans-serif;letter-spacing:0px;word-spacing:0px;fill:#000000;fill-opacity:1;stroke:none;stroke-width:1px;stroke-linecap:butt;stroke-linejoin:miter;stroke-opacity:1"
       aria-label="Section 003">
      <path
         id="path23"
         style="font-style:normal;font-variant:normal;font-weight:500;font-stretch:normal;font-size:35.00000381px;line-height:125%;font-family:Montserrat;-inkscape-font-specification:'Montserrat, Medium';text-align:start;writing-mode:lr-tb;text-anchor:start"
         d="m 18.885006,72.857011 c 6.475,0 9.485001,-3.22 9.485001,-6.965001 0,-8.995001 -14.840002,-5.25 -14.840002,-11.235001 0,-2.135 1.785,-3.885 5.950001,-3.885 2.17,0 4.585,0.63 6.72,1.995 l 1.155001,-2.8 c -2.030001,-1.400001 -5.005001,-2.170001 -7.875001,-2.170001 -6.440001,0 -9.380001,3.220001 -9.380001,7.000001 0,9.100001 14.840001,5.320001 14.840001,11.305001 0,2.135001 -1.82,3.780001 -6.055,3.780001 -3.150001,0 -6.265001,-1.19 -8.085001,-2.835 l -1.2950004,2.73 c 1.9600004,1.82 5.6350004,3.08 9.3800014,3.08 z" />
      <path
         id="path25"
         style="font-style:normal;font-variant:normal;font-weight:500;font-stretch:normal;font-size:35.00000381px;line-height:125%;font-family:Montserrat;-inkscape-font-specification:'Montserrat, Medium';text-align:start;writing-mode:lr-tb;text-anchor:start"
         d="m 49.75829,63.40701 c 0,-5.705001 -3.815001,-9.555001 -9.170001,-9.555001 -5.355001,0 -9.310001,3.955 -9.310001,9.450001 0,5.530001 3.99,9.485001 9.975001,9.485001 3.08,0 5.635,-1.05 7.315001,-3.01 l -1.855001,-2.17 c -1.365,1.505 -3.185,2.24 -5.355,2.24 -3.675001,0 -6.300001,-2.17 -6.720001,-5.425001 H 49.68829 c 0.035,-0.315 0.07,-0.735 0.07,-1.015 z m -9.170001,-6.720001 c 3.255,0 5.6,2.205001 5.95,5.320001 H 34.638288 c 0.35,-3.15 2.73,-5.320001 5.950001,-5.320001 z" />
      <path
         id="path27"
         style="font-style:normal;font-variant:normal;font-weight:500;font-stretch:normal;font-size:35.00000381px;line-height:125%;font-family:Montserrat;-inkscape-font-specification:'Montserrat, Medium';text-align:start;writing-mode:lr-tb;text-anchor:start"
         d="m 62.474775,72.787011 c 3.325,0 6.090001,-1.4 7.560001,-3.99 l -2.555,-1.61 c -1.19,1.82 -3.010001,2.66 -5.040001,2.66 -3.64,0 -6.370001,-2.52 -6.370001,-6.545001 0,-3.955 2.730001,-6.510001 6.370001,-6.510001 2.03,0 3.850001,0.84 5.040001,2.660001 l 2.555,-1.645001 c -1.47,-2.59 -4.235001,-3.955 -7.560001,-3.955 -5.705,0 -9.800001,3.92 -9.800001,9.450001 0,5.530001 4.095001,9.485001 9.800001,9.485001 z" />
      <path
         id="path29"
         style="font-style:normal;font-variant:normal;font-weight:500;font-stretch:normal;font-size:35.00000381px;line-height:125%;font-family:Montserrat;-inkscape-font-specification:'Montserrat, Medium';text-align:start;writing-mode:lr-tb;text-anchor:start"
         d="m 84.004154,69.077011 c -0.7,0.56 -1.645,0.875 -2.625,0.875 -1.855,0 -2.905001,-1.12 -2.905001,-3.115001 V 56.792009 h 5.320001 v -2.765 h -5.320001 v -4.06 h -3.36 v 4.06 h -3.15 v 2.765 h 3.15 V 66.97701 c 0,3.745001 2.135,5.810001 5.880001,5.810001 1.505,0 3.045,-0.42 4.06,-1.295 z" />
      <path
         id="path31"
         style="font-style:normal;font-variant:normal;font-weight:500;font-stretch:normal;font-size:35.00000381px;line-height:125%;font-family:Montserrat;-inkscape-font-specification:'Montserrat, Medium';text-align:start;writing-mode:lr-tb;text-anchor:start"
         d="m 90.796341,50.457009 c 1.33,0 2.275,-0.98 2.275,-2.240001 0,-1.19 -0.98,-2.135 -2.275,-2.135 -1.295,0 -2.275001,0.98 -2.275001,2.205 0,1.225001 0.980001,2.170001 2.275001,2.170001 z m -1.68,22.120002 h 3.36 V 54.027009 h -3.36 z" />
      <path
         id="path33"
         style="font-style:normal;font-variant:normal;font-weight:500;font-stretch:normal;font-size:35.00000381px;line-height:125%;font-family:Montserrat;-inkscape-font-specification:'Montserrat, Medium';text-align:start;writing-mode:lr-tb;text-anchor:start"
         d="m 106.83673,72.787011 c 5.565,0 9.625,-3.955 9.625,-9.485001 0,-5.530001 -4.06,-9.450001 -9.625,-9.450001 -5.565,0 -9.659999,3.92 -9.659999,9.450001 0,5.530001 4.094999,9.485001 9.659999,9.485001 z m 0,-2.94 c -3.57,0 -6.265,-2.59 -6.265,-6.545001 0,-3.955 2.695,-6.510001 6.265,-6.510001 3.57,0 6.23,2.555001 6.23,6.510001 0,3.955001 -2.66,6.545001 -6.23,6.545001 z" />
      <path
         id="path35"
         style="font-style:normal;font-variant:normal;font-weight:500;font-stretch:normal;font-size:35.00000381px;line-height:125%;font-family:Montserrat;-inkscape-font-specification:'Montserrat, Medium';text-align:start;writing-mode:lr-tb;text-anchor:start"
         d="m 131.01353,53.852009 c -2.94,0 -5.32,1.085 -6.685,2.975 v -2.8 h -3.22 v 18.550002 h 3.36 V 63.02201 c 0,-4.025 2.31,-6.160001 5.88,-6.160001 3.185,0 5.005,1.785001 5.005,5.425001 v 10.290001 h 3.36 V 61.90201 c 0,-5.460001 -3.185,-8.050001 -7.7,-8.050001 z" />
      <path
         id="path37"
         style="font-style:normal;font-variant:normal;font-weight:500;font-stretch:normal;font-size:35.00000381px;line-height:125%;font-family:Montserrat;-inkscape-font-specification:'Montserrat, Medium';text-align:start;writing-mode:lr-tb;text-anchor:start"
         d="m 162.90455,72.857011 c 5.705,0 9.975,-4.55 9.975,-12.530001 0,-7.980001 -4.27,-12.530002 -9.975,-12.530002 -5.74,0 -10.01,4.550001 -10.01,12.530002 0,7.980001 4.27,12.530001 10.01,12.530001 z m 0,-3.115 c -3.85,0 -6.51,-3.150001 -6.51,-9.415001 0,-6.265001 2.66,-9.415001 6.51,-9.415001 3.815,0 6.475,3.15 6.475,9.415001 0,6.265 -2.66,9.415001 -6.475,9.415001 z" />
      <path
         id="path39"
         style="font-style:normal;font-variant:normal;font-weight:500;font-stretch:normal;font-size:35.00000381px;line-height:125%;font-family:Montserrat;-inkscape-font-specification:'Montserrat, Medium';text-align:start;writing-mode:lr-tb;text-anchor:start"
         d="m 186.28346,72.857011 c 5.705,0 9.975,-4.55 9.975,-12.530001 0,-7.980001 -4.27,-12.530002 -9.975,-12.530002 -5.74,0 -10.01,4.550001 -10.01,12.530002 0,7.980001 4.27,12.530001 10.01,12.530001 z m 0,-3.115 c -3.85,0 -6.51,-3.150001 -6.51,-9.415001 0,-6.265001 2.66,-9.415001 6.51,-9.415001 3.815,0 6.475,3.15 6.475,9.415001 0,6.265 -2.66,9.415001 -6.475,9.415001 z" />
      <path
         id="path41"
         style="font-style:normal;font-variant:normal;font-weight:500;font-stretch:normal;font-size:35.00000381px;line-height:125%;font-family:Montserrat;-inkscape-font-specification:'Montserrat, Medium';text-align:start;writing-mode:lr-tb;text-anchor:start"
         d="m 208.69057,58.36701 6.405,-7.910001 v -2.380001 h -16.17 v 3.045001 h 11.795 l -6.16,7.560001 v 2.45 h 1.96 c 4.2,0 6.055,1.68 6.055,4.27 0,2.660001 -2.1,4.340001 -5.775,4.340001 -3.01,0 -5.74,-1.085 -7.385,-2.625 l -1.61,2.765 c 2.065,1.855 5.495,2.975 8.995,2.975 6.23,0 9.275,-3.36 9.275,-7.490001 0,-3.78 -2.485,-6.545 -7.385,-7 z" />
    </g>
    <g
       id="text853"
       style="font-style:normal;font-weight:normal;font-size:25.78125px;line-height:125%;font-family:sans-serif;letter-spacing:0px;word-spacing:0px;fill:#006633;fill-opacity:1;stroke:none;stroke-width:0.9375px;stroke-linecap:butt;stroke-linejoin:miter;stroke-opacity:1"
       aria-label="CSI 702">
      <path
         id="path44"
         style="font-style:normal;font-variant:normal;font-weight:600;font-stretch:normal;font-size:110px;font-family:Montserrat;-inkscape-font-specification:'Montserrat, Semi-Bold';font-variant-ligatures:normal;font-variant-caps:normal;font-variant-numeric:normal;font-feature-settings:normal;text-align:start;writing-mode:lr-tb;text-anchor:start;fill:#006633;fill-opacity:1;stroke-width:0.9375px"
         d="m 46.895005,157.17648 c 12.65,0 23.43,-4.51 30.58,-12.87 l -9.24,-8.8 c -5.61,6.16 -12.54,9.13 -20.57,9.13 -15.95,0 -27.5,-11.22 -27.5,-27.06 0,-15.84 11.55,-27.060003 27.5,-27.060003 8.03,0 14.96,2.97 20.57,9.02 l 9.24,-8.69 c -7.15,-8.36 -17.93,-12.87 -30.47,-12.87 -23.65,0 -41.2500004,16.61 -41.2500004,39.600003 0,22.99 17.6000004,39.6 41.1400004,39.6 z" />
      <path
         id="path46"
         style="font-style:normal;font-variant:normal;font-weight:600;font-stretch:normal;font-size:110px;font-family:Montserrat;-inkscape-font-specification:'Montserrat, Semi-Bold';font-variant-ligatures:normal;font-variant-caps:normal;font-variant-numeric:normal;font-feature-settings:normal;text-align:start;writing-mode:lr-tb;text-anchor:start;fill:#006633;fill-opacity:1;stroke-width:0.9375px"
         d="m 114.61719,157.17648 c 21.12,0 31.13,-10.56 31.13,-22.88 0,-28.27 -45.65,-17.6 -45.65,-33.99 0,-5.830003 4.84,-10.450003 16.72,-10.450003 6.71,0 14.3,1.98 21.23,6.05 l 4.51,-11.11 c -6.71,-4.4 -16.39,-6.82 -25.63,-6.82 -21.119998,0 -31.019998,10.56 -31.019998,22.990003 0,28.6 45.759998,17.71 45.759998,34.32 0,5.72 -5.06,10.01 -17.05,10.01 -9.46,0 -19.249998,-3.52 -25.409998,-8.47 l -4.95,11.11 c 6.38,5.5 18.369998,9.24 30.359998,9.24 z" />
      <path
         id="path48"
         style="font-style:normal;font-variant:normal;font-weight:600;font-stretch:normal;font-size:110px;font-family:Montserrat;-inkscape-font-specification:'Montserrat, Semi-Bold';font-variant-ligatures:normal;font-variant-caps:normal;font-variant-numeric:normal;font-feature-settings:normal;text-align:start;writing-mode:lr-tb;text-anchor:start;fill:#006633;fill-opacity:1;stroke-width:0.9375px"
         d="m 159.92688,156.07648 h 14.3 V 79.076477 h -14.3 z" />
      <path
         id="path50"
         style="fill:#000000;fill-opacity:1"
         d="m 217.97938,79.076477 v 25.190003 h 13.31 V 91.176477 h 30.25 l -28.93,64.900003 h 15.29 l 29.92,-67.430003 v -9.57 z" />
      <path
         id="path52"
         style="fill:#000000;fill-opacity:1"
         d="m 316.52735,157.17648 c 18.37,0 32.23,-14.3 32.23,-39.6 0,-25.300003 -13.86,-39.600003 -32.23,-39.600003 -18.26,0 -32.12,14.3 -32.12,39.600003 0,25.3 13.86,39.6 32.12,39.6 z m 0,-12.43 c -10.45,0 -17.71,-8.58 -17.71,-27.17 0,-18.590003 7.26,-27.170003 17.71,-27.170003 10.56,0 17.82,8.58 17.82,27.170003 0,18.59 -7.26,27.17 -17.82,27.17 z" />
      <path
         id="path54"
         style="fill:#000000;fill-opacity:1"
         d="m 377.35391,143.97648 20.57,-19.58 c 10.67,-10.01 12.76,-16.83 12.76,-24.31 0,-13.640003 -10.78,-22.110003 -27.5,-22.110003 -12.65,0 -23.32,4.73 -29.26,12.76 l 10.01,7.7 c 4.29,-5.5 10.56,-8.03 18.04,-8.03 9.46,0 14.3,4.07 14.3,11.110003 0,4.29 -1.32,8.8 -8.8,15.95 l -30.58,29.04 v 9.57 h 56.76 v -12.1 z" />
    </g>
    <g
       id="text865"
       style="font-style:normal;font-weight:normal;font-size:25.78125px;line-height:125%;font-family:sans-serif;letter-spacing:0px;word-spacing:0px;fill:#000000;fill-opacity:1;stroke:none;stroke-width:0.9375px;stroke-linecap:butt;stroke-linejoin:miter;stroke-opacity:1"
       aria-label="High-Performance
Computing">
      <path
         id="path57"
         style="font-style:italic;font-variant:normal;font-weight:500;font-stretch:normal;font-size:41.25px;line-height:100%;font-family:Montserrat;-inkscape-font-specification:'Montserrat, Medium Italic';font-variant-ligatures:normal;font-variant-caps:normal;font-variant-numeric:normal;font-feature-settings:normal;text-align:start;writing-mode:lr-tb;text-anchor:start;stroke-width:0.9375px"
         d="m 447.63641,83.503922 -2.475,12.375 h -16.5825 l 2.475,-12.375 h -4.125 l -5.775,28.874998 h 4.125 l 2.5575,-12.787498 h 16.5825 l -2.5575,12.787498 h 4.125 l 5.775,-28.874998 z" />
      <path
         id="path59"
         style="font-style:italic;font-variant:normal;font-weight:500;font-stretch:normal;font-size:41.25px;line-height:100%;font-family:Montserrat;-inkscape-font-specification:'Montserrat, Medium Italic';font-variant-ligatures:normal;font-variant-caps:normal;font-variant-numeric:normal;font-feature-settings:normal;text-align:start;writing-mode:lr-tb;text-anchor:start;stroke-width:0.9375px"
         d="m 461.59954,86.308922 c 1.69125,0 2.8875,-1.155 2.8875,-2.84625 0,-1.2375 -1.0725,-2.31 -2.51625,-2.31 -1.69125,0 -2.84625,1.2375 -2.84625,2.76375 0,1.32 1.03125,2.3925 2.475,2.3925 z m -7.46625,26.069998 h 3.96 l 4.33125,-21.862498 h -3.96 z" />
      <path
         id="path61"
         style="font-style:italic;font-variant:normal;font-weight:500;font-stretch:normal;font-size:41.25px;line-height:100%;font-family:Montserrat;-inkscape-font-specification:'Montserrat, Medium Italic';font-variant-ligatures:normal;font-variant-caps:normal;font-variant-numeric:normal;font-feature-settings:normal;text-align:start;writing-mode:lr-tb;text-anchor:start;stroke-width:0.9375px"
         d="m 487.14553,90.516422 -0.78375,4.00125 c -1.44375,-2.8875 -4.57875,-4.2075 -8.1675,-4.2075 -7.30125,0 -12.4575,5.32125 -12.4575,12.251248 0,5.5275 3.96,8.91 9.735,8.91 3.25875,0 5.94,-1.11375 7.92,-3.01125 l -0.33,1.5675 c -0.94875,4.74375 -3.5475,7.095 -8.70375,7.095 -3.42375,0 -6.39375,-1.0725 -8.085,-2.64 l -2.18625,3.0525 c 2.35125,1.98 5.81625,3.09375 9.9825,3.09375 7.26,0 11.50875,-3.3 13.07625,-11.22 l 3.75375,-18.892498 z m -10.89,17.489998 c -4.08375,0 -6.5175,-2.145 -6.5175,-5.6925 0,-4.949998 3.58875,-8.538748 8.58,-8.538748 4.125,0 6.5175,2.145 6.5175,5.65125 0,4.991248 -3.58875,8.579998 -8.58,8.579998 z" />
      <path
         id="path63"
         style="font-style:italic;font-variant:normal;font-weight:500;font-stretch:normal;font-size:41.25px;line-height:100%;font-family:Montserrat;-inkscape-font-specification:'Montserrat, Medium Italic';font-variant-ligatures:normal;font-variant-caps:normal;font-variant-numeric:normal;font-feature-settings:normal;text-align:start;writing-mode:lr-tb;text-anchor:start;stroke-width:0.9375px"
         d="m 509.60422,90.310172 c -3.0525,0 -5.6925,0.86625 -7.71375,2.76375 l 2.26875,-11.3025 h -3.96 l -6.105,30.607498 h 3.96 l 2.31,-11.55 c 0.94875,-4.702498 3.83625,-6.971248 8.085,-6.971248 3.42375,0 5.07375,1.60875 5.07375,4.455 0,0.53625 -0.0825,1.155 -0.20625,1.814998 l -2.43375,12.25125 h 3.96 l 2.43375,-12.25125 c 0.165,-0.907498 0.2475,-1.773748 0.2475,-2.557498 0,-4.66125 -2.97,-7.26 -7.92,-7.26 z" />
      <path
         id="path65"
         style="font-style:italic;font-variant:normal;font-weight:500;font-stretch:normal;font-size:41.25px;line-height:100%;font-family:Montserrat;-inkscape-font-specification:'Montserrat, Medium Italic';font-variant-ligatures:normal;font-variant-caps:normal;font-variant-numeric:normal;font-feature-settings:normal;text-align:start;writing-mode:lr-tb;text-anchor:start;stroke-width:0.9375px"
         d="m 522.74815,102.76767 h 11.055 l 0.70125,-3.423748 h -11.09625 z" />
      <path
         id="path67"
         style="font-style:italic;font-variant:normal;font-weight:500;font-stretch:normal;font-size:41.25px;line-height:100%;font-family:Montserrat;-inkscape-font-specification:'Montserrat, Medium Italic';font-variant-ligatures:normal;font-variant-caps:normal;font-variant-numeric:normal;font-feature-settings:normal;text-align:start;writing-mode:lr-tb;text-anchor:start;stroke-width:0.9375px"
         d="m 555.03917,83.503922 h -10.725 l -5.775,28.874998 h 4.125 l 1.7325,-8.745 h 7.71375 c 8.3325,0 13.53,-4.289998 13.53,-11.673748 0,-5.3625 -3.8775,-8.45625 -10.60125,-8.45625 z m -2.84625,16.541248 h -7.05375 l 2.59875,-12.952498 h 6.93 c 4.3725,0 6.8475,1.77375 6.8475,5.23875 0,5.07375 -3.42375,7.713748 -9.3225,7.713748 z" />
      <path
         id="path69"
         style="font-style:italic;font-variant:normal;font-weight:500;font-stretch:normal;font-size:41.25px;line-height:100%;font-family:Montserrat;-inkscape-font-specification:'Montserrat, Medium Italic';font-variant-ligatures:normal;font-variant-caps:normal;font-variant-numeric:normal;font-feature-settings:normal;text-align:start;writing-mode:lr-tb;text-anchor:start;stroke-width:0.9375px"
         d="m 589.10909,102.68517 c 0.165,-0.9075 0.28875,-1.8975 0.28875,-2.928748 0,-5.89875 -3.8775,-9.44625 -9.77625,-9.44625 -7.13625,0 -12.33375,5.40375 -12.33375,12.828748 0,5.775 4.00125,9.4875 10.4775,9.4875 3.34125,0 6.64125,-1.11375 8.78625,-3.135 l -1.69125,-2.84625 c -1.5675,1.52625 -4.0425,2.51625 -6.765,2.51625 -4.7025,0 -6.93,-2.2275 -6.93,-6.22875 v -0.2475 z m -9.6525,-9.074998 c 3.8775,0 6.435,2.18625 6.22875,6.1875 h -14.1075 c 0.99,-3.795 3.91875,-6.1875 7.87875,-6.1875 z" />
      <path
         id="path71"
         style="font-style:italic;font-variant:normal;font-weight:500;font-stretch:normal;font-size:41.25px;line-height:100%;font-family:Montserrat;-inkscape-font-specification:'Montserrat, Medium Italic';font-variant-ligatures:normal;font-variant-caps:normal;font-variant-numeric:normal;font-feature-settings:normal;text-align:start;writing-mode:lr-tb;text-anchor:start;stroke-width:0.9375px"
         d="m 600.05387,93.775172 0.61875,-3.25875 h -3.795 l -4.33125,21.862498 h 3.96 l 2.18625,-10.93125 c 0.99,-5.032498 3.8775,-7.342498 8.25,-7.342498 0.4125,0 0.66,0 1.03125,0.04125 l 0.7425,-3.83625 c -3.91875,0 -6.6825,0.99 -8.6625,3.465 z" />
      <path
         id="path73"
         style="font-style:italic;font-variant:normal;font-weight:500;font-stretch:normal;font-size:41.25px;line-height:100%;font-family:Montserrat;-inkscape-font-specification:'Montserrat, Medium Italic';font-variant-ligatures:normal;font-variant-caps:normal;font-variant-numeric:normal;font-feature-settings:normal;text-align:start;writing-mode:lr-tb;text-anchor:start;stroke-width:0.9375px"
         d="m 623.55735,84.782672 c 1.19625,0 2.18625,0.37125 2.92875,1.03125 l 1.65,-2.92875 c -1.0725,-0.86625 -2.76375,-1.36125 -4.57875,-1.36125 -4.49625,0 -7.21875,2.5575 -8.085,6.93 l -0.4125,2.0625 h -3.795 l -0.61875,3.25875 h 3.75375 l -3.75375,18.603748 h 3.96 l 3.75375,-18.603748 h 6.22875 l 0.66,-3.25875 h -6.3525 l 0.37125,-1.7325 c 0.5775,-2.7225 1.8975,-4.00125 4.29,-4.00125 z" />
      <path
         id="path75"
         style="font-style:italic;font-variant:normal;font-weight:500;font-stretch:normal;font-size:41.25px;line-height:100%;font-family:Montserrat;-inkscape-font-specification:'Montserrat, Medium Italic';font-variant-ligatures:normal;font-variant-caps:normal;font-variant-numeric:normal;font-feature-settings:normal;text-align:start;writing-mode:lr-tb;text-anchor:start;stroke-width:0.9375px"
         d="m 634.6001,112.62642 c 7.46625,0 12.7875,-5.48625 12.7875,-12.911248 0,-5.73375 -4.00125,-9.405 -10.23,-9.405 -7.46625,0 -12.82875,5.48625 -12.82875,12.869998 0,5.6925 4.0425,9.44625 10.27125,9.44625 z m 0.2475,-3.465 c -4.16625,0 -6.5175,-2.31 -6.5175,-6.14625 0,-5.403748 3.63,-9.239998 8.53875,-9.239998 4.16625,0 6.5175,2.26875 6.5175,6.14625 0,5.403748 -3.58875,9.239998 -8.53875,9.239998 z" />
      <path
         id="path77"
         style="font-style:italic;font-variant:normal;font-weight:500;font-stretch:normal;font-size:41.25px;line-height:100%;font-family:Montserrat;-inkscape-font-specification:'Montserrat, Medium Italic';font-variant-ligatures:normal;font-variant-caps:normal;font-variant-numeric:normal;font-feature-settings:normal;text-align:start;writing-mode:lr-tb;text-anchor:start;stroke-width:0.9375px"
         d="m 658.06168,93.775172 0.61875,-3.25875 h -3.795 l -4.33125,21.862498 h 3.96 l 2.18625,-10.93125 c 0.99,-5.032498 3.8775,-7.342498 8.25,-7.342498 0.4125,0 0.66,0 1.03125,0.04125 l 0.7425,-3.83625 c -3.91875,0 -6.6825,0.99 -8.6625,3.465 z" />
      <path
         id="path79"
         style="font-style:italic;font-variant:normal;font-weight:500;font-stretch:normal;font-size:41.25px;line-height:100%;font-family:Montserrat;-inkscape-font-specification:'Montserrat, Medium Italic';font-variant-ligatures:normal;font-variant-caps:normal;font-variant-numeric:normal;font-feature-settings:normal;text-align:start;writing-mode:lr-tb;text-anchor:start;stroke-width:0.9375px"
         d="m 698.25336,90.310172 c -3.63,0 -6.6825,1.27875 -8.91,3.8775 -1.11375,-2.51625 -3.58875,-3.8775 -7.0125,-3.8775 -2.97,0 -5.61,0.9075 -7.59,2.92875 l 0.53625,-2.7225 h -3.795 l -4.33125,21.862498 h 3.96 l 2.31,-11.55 c 0.94875,-4.702498 3.63,-6.971248 7.6725,-6.971248 3.3,0 4.8675,1.60875 4.8675,4.41375 0,0.5775 -0.0825,1.19625 -0.20625,1.856248 l -2.475,12.25125 h 3.96 l 2.35125,-11.67375 c 0.94875,-4.619998 3.67125,-6.847498 7.6725,-6.847498 3.25875,0 4.82625,1.5675 4.82625,4.3725 0,0.5775 -0.0825,1.19625 -0.20625,1.897498 l -2.43375,12.25125 h 3.96 l 2.43375,-12.25125 c 0.165,-0.948748 0.28875,-1.814998 0.28875,-2.598748 0,-4.62 -2.92875,-7.21875 -7.87875,-7.21875 z" />
      <path
         id="path81"
         style="font-style:italic;font-variant:normal;font-weight:500;font-stretch:normal;font-size:41.25px;line-height:100%;font-family:Montserrat;-inkscape-font-specification:'Montserrat, Medium Italic';font-variant-ligatures:normal;font-variant-caps:normal;font-variant-numeric:normal;font-feature-settings:normal;text-align:start;writing-mode:lr-tb;text-anchor:start;stroke-width:0.9375px"
         d="m 731.85342,90.516422 -0.7425,3.7125 c -1.4025,-2.5575 -4.125,-3.91875 -7.87875,-3.91875 -7.095,0 -12.375,5.3625 -12.375,12.869998 0,5.89875 4.08375,9.44625 9.6525,9.44625 3.135,0 5.775,-1.0725 7.71375,-2.92875 l -0.53625,2.68125 h 3.795 l 4.33125,-21.862498 z m -10.4775,18.644998 c -4.16625,0 -6.5175,-2.31 -6.5175,-6.14625 0,-5.403748 3.63,-9.239998 8.53875,-9.239998 4.16625,0 6.5175,2.26875 6.5175,6.14625 0,5.403748 -3.58875,9.239998 -8.53875,9.239998 z" />
      <path
         id="path83"
         style="font-style:italic;font-variant:normal;font-weight:500;font-stretch:normal;font-size:41.25px;line-height:100%;font-family:Montserrat;-inkscape-font-specification:'Montserrat, Medium Italic';font-variant-ligatures:normal;font-variant-caps:normal;font-variant-numeric:normal;font-feature-settings:normal;text-align:start;writing-mode:lr-tb;text-anchor:start;stroke-width:0.9375px"
         d="m 754.5261,90.310172 c -3.135,0 -5.89875,0.94875 -7.92,3.01125 l 0.53625,-2.805 h -3.795 l -4.33125,21.862498 h 3.96 l 2.31,-11.55 c 0.94875,-4.702498 3.83625,-6.971248 8.085,-6.971248 3.42375,0 5.07375,1.60875 5.07375,4.455 0,0.53625 -0.0825,1.155 -0.20625,1.814998 l -2.43375,12.25125 h 3.96 l 2.43375,-12.25125 c 0.165,-0.907498 0.2475,-1.773748 0.2475,-2.557498 0,-4.66125 -2.97,-7.26 -7.92,-7.26 z" />
      <path
         id="path85"
         style="font-style:italic;font-variant:normal;font-weight:500;font-stretch:normal;font-size:41.25px;line-height:100%;font-family:Montserrat;-inkscape-font-specification:'Montserrat, Medium Italic';font-variant-ligatures:normal;font-variant-caps:normal;font-variant-numeric:normal;font-feature-settings:normal;text-align:start;writing-mode:lr-tb;text-anchor:start;stroke-width:0.9375px"
         d="m 777.64866,112.62642 c 3.91875,0 7.54875,-1.69125 9.57,-4.49625 l -2.8875,-2.0625 c -1.52625,2.0625 -3.91875,3.09375 -6.5175,3.09375 -4.2075,0 -6.55875,-2.31 -6.55875,-6.14625 0,-5.403748 3.63,-9.239998 8.58,-9.239998 2.805,0 4.785,1.03125 5.94,3.135 l 3.34125,-1.85625 c -1.69125,-3.17625 -4.785,-4.74375 -8.9925,-4.74375 -7.5075,0 -12.87,5.48625 -12.87,12.869998 0,5.6925 4.0425,9.44625 10.395,9.44625 z" />
      <path
         id="path87"
         style="font-style:italic;font-variant:normal;font-weight:500;font-stretch:normal;font-size:41.25px;line-height:100%;font-family:Montserrat;-inkscape-font-specification:'Montserrat, Medium Italic';font-variant-ligatures:normal;font-variant-caps:normal;font-variant-numeric:normal;font-feature-settings:normal;text-align:start;writing-mode:lr-tb;text-anchor:start;stroke-width:0.9375px"
         d="m 812.27803,102.68517 c 0.165,-0.9075 0.28875,-1.8975 0.28875,-2.928748 0,-5.89875 -3.8775,-9.44625 -9.77625,-9.44625 -7.13625,0 -12.33375,5.40375 -12.33375,12.828748 0,5.775 4.00125,9.4875 10.4775,9.4875 3.34125,0 6.64125,-1.11375 8.78625,-3.135 l -1.69125,-2.84625 c -1.5675,1.52625 -4.0425,2.51625 -6.765,2.51625 -4.7025,0 -6.93,-2.2275 -6.93,-6.22875 v -0.2475 z m -9.6525,-9.074998 c 3.8775,0 6.435,2.18625 6.22875,6.1875 h -14.1075 c 0.99,-3.795 3.91875,-6.1875 7.87875,-6.1875 z" />
      <path
         id="path89"
         style="font-style:italic;font-variant:normal;font-weight:500;font-stretch:normal;font-size:41.25px;line-height:100%;font-family:Montserrat;-inkscape-font-specification:'Montserrat, Medium Italic';font-variant-ligatures:normal;font-variant-caps:normal;font-variant-numeric:normal;font-feature-settings:normal;text-align:start;writing-mode:lr-tb;text-anchor:start;stroke-width:0.9375px"
         d="m 435.26141,154.88148 c 4.62,0 8.745,-1.44375 11.42625,-4.3725 l -2.3925,-2.7225 c -2.26875,2.26875 -5.23875,3.42375 -8.745,3.42375 -6.5175,0 -9.94125,-3.50625 -9.94125,-8.745 0,-7.26 5.07375,-13.4475 13.2825,-13.4475 3.58875,0 6.22875,1.19625 7.92,3.3825 l 2.97,-2.5575 c -1.98,-2.8875 -5.81625,-4.49625 -10.60125,-4.49625 -10.8075,0 -17.69625,7.755 -17.69625,17.36625 0,7.21875 5.07375,12.16875 13.7775,12.16875 z" />
      <path
         id="path91"
         style="font-style:italic;font-variant:normal;font-weight:500;font-stretch:normal;font-size:41.25px;line-height:100%;font-family:Montserrat;-inkscape-font-specification:'Montserrat, Medium Italic';font-variant-ligatures:normal;font-variant-caps:normal;font-variant-numeric:normal;font-feature-settings:normal;text-align:start;writing-mode:lr-tb;text-anchor:start;stroke-width:0.9375px"
         d="m 459.771,154.79898 c 7.46625,0 12.7875,-5.48625 12.7875,-12.91125 0,-5.73375 -4.00125,-9.405 -10.23,-9.405 -7.46625,0 -12.82875,5.48625 -12.82875,12.87 0,5.6925 4.0425,9.44625 10.27125,9.44625 z m 0.2475,-3.465 c -4.16625,0 -6.5175,-2.31 -6.5175,-6.14625 0,-5.40375 3.63,-9.24 8.53875,-9.24 4.16625,0 6.5175,2.26875 6.5175,6.14625 0,5.40375 -3.58875,9.24 -8.53875,9.24 z" />
      <path
         id="path93"
         style="font-style:italic;font-variant:normal;font-weight:500;font-stretch:normal;font-size:41.25px;line-height:100%;font-family:Montserrat;-inkscape-font-specification:'Montserrat, Medium Italic';font-variant-ligatures:normal;font-variant-caps:normal;font-variant-numeric:normal;font-feature-settings:normal;text-align:start;writing-mode:lr-tb;text-anchor:start;stroke-width:0.9375px"
         d="m 506.82758,132.48273 c -3.63,0 -6.6825,1.27875 -8.91,3.8775 -1.11375,-2.51625 -3.58875,-3.8775 -7.0125,-3.8775 -2.97,0 -5.61,0.9075 -7.59,2.92875 l 0.53625,-2.7225 h -3.795 l -4.33125,21.8625 h 3.96 l 2.31,-11.55 c 0.94875,-4.7025 3.63,-6.97125 7.6725,-6.97125 3.3,0 4.8675,1.60875 4.8675,4.41375 0,0.5775 -0.0825,1.19625 -0.20625,1.85625 l -2.475,12.25125 h 3.96 l 2.35125,-11.67375 c 0.94875,-4.62 3.67125,-6.8475 7.6725,-6.8475 3.25875,0 4.82625,1.5675 4.82625,4.3725 0,0.5775 -0.0825,1.19625 -0.20625,1.8975 l -2.43375,12.25125 h 3.96 l 2.43375,-12.25125 c 0.165,-0.94875 0.28875,-1.815 0.28875,-2.59875 0,-4.62 -2.92875,-7.21875 -7.87875,-7.21875 z" />
      <path
         id="path95"
         style="font-style:italic;font-variant:normal;font-weight:500;font-stretch:normal;font-size:41.25px;line-height:100%;font-family:Montserrat;-inkscape-font-specification:'Montserrat, Medium Italic';font-variant-ligatures:normal;font-variant-caps:normal;font-variant-numeric:normal;font-feature-settings:normal;text-align:start;writing-mode:lr-tb;text-anchor:start;stroke-width:0.9375px"
         d="m 534.61526,132.48273 c -3.17625,0 -5.775,1.0725 -7.71375,2.92875 l 0.53625,-2.7225 h -3.795 l -5.94,29.865 h 3.96 l 2.31,-11.715 c 1.4025,2.5575 4.16625,3.96 7.92,3.96 7.095,0 12.375,-5.40375 12.375,-12.91125 0,-5.89875 -4.08375,-9.405 -9.6525,-9.405 z m -2.8875,18.85125 c -4.16625,0 -6.5175,-2.31 -6.5175,-6.14625 0,-5.40375 3.58875,-9.24 8.53875,-9.24 4.16625,0 6.5175,2.26875 6.5175,6.14625 0,5.40375 -3.63,9.24 -8.53875,9.24 z" />
      <path
         id="path97"
         style="font-style:italic;font-variant:normal;font-weight:500;font-stretch:normal;font-size:41.25px;line-height:100%;font-family:Montserrat;-inkscape-font-specification:'Montserrat, Medium Italic';font-variant-ligatures:normal;font-variant-caps:normal;font-variant-numeric:normal;font-feature-settings:normal;text-align:start;writing-mode:lr-tb;text-anchor:start;stroke-width:0.9375px"
         d="m 568.17793,132.68898 -2.31,11.59125 c -0.94875,4.66125 -3.8775,6.97125 -8.0025,6.97125 -3.34125,0 -4.99125,-1.60875 -4.99125,-4.41375 0,-0.5775 0.0825,-1.19625 0.20625,-1.85625 l 2.43375,-12.2925 h -3.96 l -2.43375,12.25125 c -0.165,0.9075 -0.2475,1.7325 -0.2475,2.51625 0,4.66125 3.0525,7.3425 7.8375,7.3425 3.0525,0 5.81625,-0.99 7.8375,-3.0525 l -0.53625,2.805 h 3.795 l 4.33125,-21.8625 z" />
      <path
         id="path99"
         style="font-style:italic;font-variant:normal;font-weight:500;font-stretch:normal;font-size:41.25px;line-height:100%;font-family:Montserrat;-inkscape-font-specification:'Montserrat, Medium Italic';font-variant-ligatures:normal;font-variant-caps:normal;font-variant-numeric:normal;font-feature-settings:normal;text-align:start;writing-mode:lr-tb;text-anchor:start;stroke-width:0.9375px"
         d="m 583.59448,135.94773 h 6.27 l 0.66,-3.25875 h -6.27 l 0.94875,-4.785 h -3.96 l -0.94875,4.785 h -3.75375 l -0.61875,3.25875 h 3.7125 l -2.35125,11.715 c -0.12375,0.5775 -0.165,1.155 -0.165,1.65 0,3.42375 2.35125,5.48625 5.775,5.48625 1.7325,0 3.58875,-0.33 5.07375,-1.36125 l -0.825,-3.01125 c -0.9075,0.66 -2.0625,1.03125 -3.135,1.03125 -1.98,0 -2.8875,-1.03125 -2.8875,-2.7225 0,-0.37125 0.0412,-0.7425 0.12375,-1.155 z" />
      <path
         id="path101"
         style="font-style:italic;font-variant:normal;font-weight:500;font-stretch:normal;font-size:41.25px;line-height:100%;font-family:Montserrat;-inkscape-font-specification:'Montserrat, Medium Italic';font-variant-ligatures:normal;font-variant-caps:normal;font-variant-numeric:normal;font-feature-settings:normal;text-align:start;writing-mode:lr-tb;text-anchor:start;stroke-width:0.9375px"
         d="m 599.93206,128.48148 c 1.69125,0 2.8875,-1.155 2.8875,-2.84625 0,-1.2375 -1.0725,-2.31 -2.51625,-2.31 -1.69125,0 -2.84625,1.2375 -2.84625,2.76375 0,1.32 1.03125,2.3925 2.475,2.3925 z m -7.46625,26.07 h 3.96 l 4.33125,-21.8625 h -3.96 z" />
      <path
         id="path103"
         style="font-style:italic;font-variant:normal;font-weight:500;font-stretch:normal;font-size:41.25px;line-height:100%;font-family:Montserrat;-inkscape-font-specification:'Montserrat, Medium Italic';font-variant-ligatures:normal;font-variant-caps:normal;font-variant-numeric:normal;font-feature-settings:normal;text-align:start;writing-mode:lr-tb;text-anchor:start;stroke-width:0.9375px"
         d="m 619.4968,132.48273 c -3.135,0 -5.89875,0.94875 -7.92,3.01125 l 0.53625,-2.805 h -3.795 l -4.33125,21.8625 h 3.96 l 2.31,-11.55 c 0.94875,-4.7025 3.83625,-6.97125 8.085,-6.97125 3.42375,0 5.07375,1.60875 5.07375,4.455 0,0.53625 -0.0825,1.155 -0.20625,1.815 l -2.43375,12.25125 h 3.96 l 2.43375,-12.25125 c 0.165,-0.9075 0.2475,-1.77375 0.2475,-2.5575 0,-4.66125 -2.97,-7.26 -7.92,-7.26 z" />
      <path
         id="path105"
         style="font-style:italic;font-variant:normal;font-weight:500;font-stretch:normal;font-size:41.25px;line-height:100%;font-family:Montserrat;-inkscape-font-specification:'Montserrat, Medium Italic';font-variant-ligatures:normal;font-variant-caps:normal;font-variant-numeric:normal;font-feature-settings:normal;text-align:start;writing-mode:lr-tb;text-anchor:start;stroke-width:0.9375px"
         d="m 653.75686,132.68898 -0.78375,4.00125 c -1.44375,-2.8875 -4.57875,-4.2075 -8.1675,-4.2075 -7.30125,0 -12.4575,5.32125 -12.4575,12.25125 0,5.5275 3.96,8.91 9.735,8.91 3.25875,0 5.94,-1.11375 7.92,-3.01125 l -0.33,1.5675 c -0.94875,4.74375 -3.5475,7.095 -8.70375,7.095 -3.42375,0 -6.39375,-1.0725 -8.085,-2.64 l -2.18625,3.0525 c 2.35125,1.98 5.81625,3.09375 9.9825,3.09375 7.26,0 11.50875,-3.3 13.07625,-11.22 l 3.75375,-18.8925 z m -10.89,17.49 c -4.08375,0 -6.5175,-2.145 -6.5175,-5.6925 0,-4.95 3.58875,-8.53875 8.58,-8.53875 4.125,0 6.5175,2.145 6.5175,5.65125 0,4.99125 -3.58875,8.58 -8.58,8.58 z" />
    </g>
  </g>
</svg>
